<svg width="512" height="512" viewBox="0 0 512 512" fill="none" xmlns="http://www.w3.org/2000/svg">
<path fill-rule="evenodd" clip-rule="evenodd" d="M206.532 145.56L159.947 94.5302C159.947 94.5302 157.423 92.3708 158.454 91.162C159.484 89.9527 161.691 91.8728 161.691 91.8728L221.001 131.144L221.555 130.679L222.057 130.264L222.817 129.641C226.068 126.996 229.576 124.6 232.531 122.874C234.933 113.794 234.187 108.049 233.316 101.339C233.232 100.693 233.147 100.039 233.064 99.3725C233.182 98.7458 233.636 98.6033 234.743 99.3758C238.984 102.335 245.499 108.591 248.508 115.934C249.014 117.049 249.625 118.417 250.218 119.814C250.719 120.996 251.961 121.799 253.179 122.528C253.171 122.457 253.064 122.334 252.915 122.161C252.501 121.685 251.764 120.834 251.909 119.688C252.694 113.347 257.504 110.7 264.179 111C311.45 112.947 347.479 169.023 353.664 212.616C357.784 241.401 348.148 282.421 339.565 318.956L339.558 318.987C336.486 332.064 333.549 344.566 331.428 355.726C339.281 358.722 339.085 372.804 327.304 372.804C327.006 378.747 325.623 384.524 322.856 389.296C301.76 396.098 279.257 399.773 255.892 399.773C232.655 399.773 210.269 396.139 189.271 389.407C186.462 384.613 185.059 378.792 184.758 372.804C173.714 372.804 172.536 359.771 179.801 356.076C164.78 324.318 189.716 293.908 210.185 272.636C226.874 255.309 256.473 220.805 247.196 194.24C241.502 213.364 227.021 217.309 207.829 218.108C200.226 218.428 197.1 222.066 194.138 225.513C192.014 227.986 189.974 230.361 186.427 231.341C171.996 235.235 158.841 219.057 160.952 205.126C161.456 201.693 174.013 187.174 184.596 174.939L184.606 174.929L184.678 174.846L184.68 174.843C190.535 168.072 195.776 162.011 198.012 158.936C200.773 155.144 202.005 153.031 203.483 150.495C204.108 149.425 204.775 148.281 205.619 146.903C205.905 146.444 206.211 145.996 206.532 145.56ZM203.819 171.668L212.213 165.018C214.248 163.422 215.52 160.762 215.52 157.835V154.111C215.52 151.185 211.959 150.121 210.432 152.515L200.258 168.21C198.477 170.604 201.529 173.53 203.819 171.668Z" fill="#150713"/>
<path d="M185.424 401.116C172.534 407.54 163.719 418.654 159.384 432.255C188.077 447.958 221.007 456.886 256.032 456.886C291.056 456.886 323.986 447.959 352.679 432.255C348.331 418.616 339.478 407.477 326.529 401.061C304.3 408.356 280.555 412.302 255.892 412.302C231.291 412.302 207.603 408.376 185.424 401.116Z" fill="#150713"/>
<path fill-rule="evenodd" clip-rule="evenodd" d="M0 256C0 114.615 114.616 0 256 0C397.384 0 512 114.615 512 256C512 397.385 397.384 512 256 512C114.616 512 0 397.385 0 256ZM256 29.2333C130.76 29.2333 29.2333 130.76 29.2333 256C29.2333 381.24 130.76 482.767 256 482.767C381.24 482.767 482.767 381.24 482.767 256C482.767 130.76 381.24 29.2333 256 29.2333Z" fill="#150713"/>
</svg>
