<?xml version="1.0" encoding="iso-8859-1"?>
<!-- Generator: Adobe Illustrator 16.0.0, SVG Export Plug-In . SVG Version: 6.00 Build 0)  -->
<!DOCTYPE svg PUBLIC "-//W3C//DTD SVG 1.1//EN" "http://www.w3.org/Graphics/SVG/1.1/DTD/svg11.dtd">
<svg version="1.1" id="Capa_1" xmlns="http://www.w3.org/2000/svg" xmlns:xlink="http://www.w3.org/1999/xlink" x="0px" y="0px"
	 width="50px" height="50px" viewBox="0 0 50 50" style="enable-background:new 0 0 50 50;" xml:space="preserve">
<g>
	<g>
		<path d="M48.036,15.73L48.036,15.73l-3.313,5.738v22.976c0,0.144-0.135,0.279-0.277,0.279H5.556c-0.143,0-0.278-0.136-0.278-0.279
			V5.556c0-0.143,0.135-0.278,0.278-0.278h28.42l1.291-2.235l0,0l0.744-1.29C36.395,1.088,36.877,0.507,37.425,0H5.556
			C2.492,0,0,2.492,0,5.556v38.889C0,47.508,2.492,50,5.556,50h38.889C47.508,50,50,47.508,50,44.443V12.326L48.036,15.73z"/>
		<polygon points="25.889,26.23 25.943,36.589 34.943,31.461 45.594,13.013 36.538,7.785 		"/>
		<path d="M48.076,8.714c1.25-2.167,0.232-5.087-2.268-6.531s-5.539-0.865-6.791,1.304l-1.31,2.273l9.058,5.227L48.076,8.714z"/>
	</g>
</g>
<g>
</g>
<g>
</g>
<g>
</g>
<g>
</g>
<g>
</g>
<g>
</g>
<g>
</g>
<g>
</g>
<g>
</g>
<g>
</g>
<g>
</g>
<g>
</g>
<g>
</g>
<g>
</g>
<g>
</g>
</svg>
